<svg width="34" height="31" viewBox="0 0 34 31" fill="none" xmlns="http://www.w3.org/2000/svg">
<path d="M18.6667 28.8333V25.5C18.6667 20.8977 14.9357 17.1667 10.3333 17.1667C5.73097 17.1667 2 20.8977 2 25.5V28.8333H18.6667ZM18.6667 28.8333H32V27.1667C32 22.2575 28.269 18.8333 23.6667 18.8333C21.3112 18.8333 19.1838 19.8758 17.6682 21.5518M15.3333 7.16666C15.3333 9.92807 13.0947 12.1667 10.3333 12.1667C7.57192 12.1667 5.33333 9.92807 5.33333 7.16666C5.33333 4.40524 7.57192 2.16666 10.3333 2.16666C13.0947 2.16666 15.3333 4.40524 15.3333 7.16666ZM27 10.5C27 12.341 25.5077 13.8333 23.6667 13.8333C21.8257 13.8333 20.3333 12.341 20.3333 10.5C20.3333 8.65904 21.8257 7.16666 23.6667 7.16666C25.5077 7.16666 27 8.65904 27 10.5Z" stroke="#282934" stroke-width="3" stroke-linecap="round" stroke-linejoin="round"/>
</svg>
