<svg width="34" height="33" viewBox="0 0 34 33" fill="none" xmlns="http://www.w3.org/2000/svg">
<path d="M5.33333 12.392V23.0962C5.33333 25.8965 5.33333 27.2967 5.8783 28.3662C6.35767 29.307 7.12257 30.0719 8.06338 30.5512C9.13293 31.0962 10.5331 31.0962 13.3333 31.0962H20.6667C23.467 31.0962 24.867 31.0962 25.9367 30.5512C26.8775 30.0719 27.6423 29.307 28.1217 28.3662C28.6667 27.2967 28.6667 25.8965 28.6667 23.0962V4.42958M32 16.0962L22.9447 6.0362C20.8852 3.74825 19.8555 2.60428 18.6427 2.18195C17.5777 1.81101 16.4183 1.8111 15.3532 2.1822C14.1405 2.6047 13.111 3.74883 11.0519 6.03708L2 16.0962" stroke="#282934" stroke-width="3" stroke-linecap="round" stroke-linejoin="round"/>
</svg>
