<svg width="42" height="42" viewBox="0 0 42 42" fill="none" xmlns="http://www.w3.org/2000/svg">
<path d="M26.294 35.3153C26.294 35.7787 26.1571 36.2377 25.8911 36.6659C25.6249 37.0941 25.2351 37.4831 24.7435 37.811C24.2518 38.1387 23.6681 38.3986 23.0259 38.576C22.3836 38.7534 21.6951 38.8447 20.9999 38.8447C20.3047 38.8447 19.6163 38.7534 18.9739 38.576C18.3316 38.3986 17.7479 38.1387 17.2564 37.811C16.7648 37.4831 16.3749 37.0941 16.1088 36.6659C15.8427 36.2377 15.7058 35.7787 15.7058 35.3153" stroke="#282934" stroke-width="3" stroke-linecap="round"/>
<path d="M34.8913 22.9542L35.3739 23.9953C37.2151 27.9656 34.8172 32.6064 30.5137 33.4018L30.2215 33.4558C23.9748 34.6105 17.5692 34.6105 11.3225 33.4558C6.98369 32.6538 4.68827 27.8536 6.78782 23.973L7.20076 23.2097C8.32822 21.1258 8.91864 18.7936 8.91864 16.4243V14.0145C8.91864 9.95859 11.2142 6.25213 14.8453 4.44514C18.592 2.58065 22.9824 2.51724 26.7813 4.27272L27.1547 4.44514C31.0459 6.24325 33.5373 10.139 33.5373 14.4256V16.816C33.5373 18.9361 33.9992 21.0308 34.8913 22.9542Z" stroke="#282934" stroke-width="3"/>
</svg>
