<svg width="42" height="42" viewBox="0 0 42 42" fill="none" xmlns="http://www.w3.org/2000/svg">
<path d="M14.5952 8.56919C17.721 6.71813 19.2839 5.7926 21 5.7926C22.716 5.7926 24.279 6.71813 27.4047 8.56919L28.4619 9.19527C31.5876 11.0463 33.1506 11.9719 34.0086 13.4963C34.8666 15.0208 34.8666 16.8718 34.8666 20.574V21.826C34.8666 25.5283 34.8666 27.3793 34.0086 28.9037C33.1506 30.4281 31.5876 31.3536 28.4619 33.2047L27.4047 33.8308C24.279 35.6819 22.716 36.6074 21 36.6074C19.2839 36.6074 17.721 35.6819 14.5952 33.8308L13.538 33.2047C10.4123 31.3536 8.84944 30.4281 7.99137 28.9037C7.1333 27.3793 7.1333 25.5283 7.1333 21.826V20.574C7.1333 16.8718 7.1333 15.0208 7.99137 13.4963C8.84944 11.9719 10.4123 11.0463 13.538 9.19527L14.5952 8.56919Z" stroke="#282934" stroke-width="3"/>
<path d="M21.3466 25.7067C23.8356 25.7067 25.8533 23.689 25.8533 21.2C25.8533 18.7111 23.8356 16.6934 21.3466 16.6934C18.8577 16.6934 16.84 18.7111 16.84 21.2C16.84 23.689 18.8577 25.7067 21.3466 25.7067Z" stroke="#282934" stroke-width="3"/>
</svg>
